# AST/ASF file generated using VICON BodyLanguage
# -----------------------------------------------
:version 1.10
:name VICON
:units
  mass 1.0
  length 0.45
  angle deg
:documentation
   .ast/.asf automatically generated from VICON data using
   VICON BodyBuilder and BodyLanguage model FoxedUp or BRILLIANT.MOD
:root
   order TX TY TZ RX RY RZ
   axis XYZ
   position 0 0 0  
   orientation 0 0 0 
:bonedata
  begin
     id 1 
     name lhipjoint
     direction 0.627457 -0.725269 0.283342 
     length 2.53237 
     axis 0 0 0  XYZ
  end
  begin
     id 2 
     name lfemur
     direction 0.34202 -0.939693 0  
     length 7.32496  
     axis 0 0 20  XYZ
    dof rx ry rz
    limits (-160.0 20.0)
           (-70.0 70.0)
           (-60.0 70.0)
  end
  begin
     id 3 
     name ltibia
     direction 0.34202 -0.939693 0   
     length 7.69674   
     axis 0 0 20   XYZ
    dof rx
    limits (-10.0 170.0)
  end
  begin
     id 4 
     name lfoot
     direction 0.127289 -0.349722 0.928166   
     length 1.8612   
     axis -90 7.62852e-016 20   XYZ
    dof rx rz
    limits (-45.0 90.0)
           (-70.0 20.0)
  end
  begin
     id 5 
     name ltoes
     direction 1.53561e-011 -4.21864e-011 1   
     length 0.925608   
     axis -90 7.62852e-016 20   XYZ
    dof rx
    limits (-90.0 20.0)
  end
  begin
     id 6 
     name rhipjoint
     direction -0.609094 -0.738725 0.288599   
     length 2.48624  
     axis 0 0 0  XYZ 
  end
  begin
     id 7 
     name rfemur
     direction -0.34202 -0.939693 0   
     length 7.44259   
     axis 0 0 -20   XYZ
    dof rx ry rz
    limits (-160.0 20.0)
           (-70.0 70.0)
           (-70.0 60.0)
  end
  begin
     id 8 
     name rtibia
     direction -0.34202 -0.939693 0   
     length 7.7781   
     axis 0 0 -20   XYZ
    dof rx
    limits (-10.0 170.0)
 end
 begin
     id 9 
     name rfoot
     direction -0.107015 -0.294021 0.949789   
     length 2.14741  
     axis -90 -7.62852e-016 -20   XYZ
    dof rx rz
    limits (-45.0 90.0)
           (-20.0 70.0)
  end
  begin
     id 10 
     name rtoes
     direction -1.53497e-011 -4.21924e-011 1   
     length 1.0706   
     axis -90 -7.62852e-016 -20   XYZ
    dof rx
    limits (-90.0 20.0)
  end
  begin
     id 11 
     name lowerback
     direction -0.0142066 0.998112 -0.0597545   
     length 1.86627   
     axis 0 0 0   XYZ
    dof rx ry rz
    limits (-20.0 45.0)
           (-30.0 30.0)
           (-30.0 30.0)
  end
  begin
     id 12 
     name upperback
     direction 0.00547294 0.999744 0.0219437   
     length 1.86272   
     axis 0 0 0   XYZ
    dof rx ry rz
    limits (-20.0 45.0)
           (-30.0 30.0)
           (-30.0 30.0)
  end
  begin
     id 13 
     name thorax
     direction 0.0116162 0.998704 0.0495538   
     length 1.8703   
     axis 0 0 0   XYZ
    dof rx ry rz
    limits (-20.0 45.0)
           (-30.0 30.0)
           (-30.0 30.0)
  end
  begin
     id 14 
     name lowerneck
     direction -0.0106574 0.998739 0.0490586   
     length 1.8074   
     axis 0 0 0   XYZ
    dof rx ry rz
    limits (-20.0 45.0)
           (-30.0 30.0)
           (-30.0 30.0)
  end
  begin
     id 15 
     name upperneck
     direction 0.030527 0.976587 -0.212944   
     length 1.80681   
     axis 0 0 0   XYZ
    dof rx ry rz
    limits (-20.0 45.0)
           (-30.0 30.0)
           (-30.0 30.0)
  end
  begin
     id 16
     name head
     direction 0.00869225 0.997035 -0.0764531  
     length 1.8313  
     axis 0 0 0   XYZ
    dof rx ry rz
    limits (-20.0 45.0)
           (-30.0 30.0)
           (-30.0 30.0)
  end
  begin
     id 17 
     name lclavicle
     direction 0.915958 0.399447 0.0382386  
     length 3.78965  
     axis 0 0 0   XYZ
    dof ry rz
    limits (-20.0 10.0)
           (0.0 20.0)
  end
  begin
     id 18 
     name lhumerus
     direction 1 -4.48967e-011 3.19303e-027   
     length 4.78095   
     axis -180 -30 -90   XYZ
    dof rx ry rz
    limits (-60.0 90.0)
           (-90.0 90.0)
           (-90.0 90.0)
  end
  begin
     id 19
     name lradius
     direction 1 -4.48967e-011 -3.77974e-027   
     length 3.58615   
     axis -180 -30 -90   XYZ
    dof rx
    limits (-10.0 170.0)
  end
  begin
     id 20
     name lwrist
     direction 1 -4.48927e-011 1.2807e-027   
     length 1.79307   
     axis 1.91374e-015 90 90   XYZ
    dof ry
    limits (-180.0 0.0)
 end
  begin
     id 21 
     name lhand
     direction 1 -4.49036e-011 2.5614e-027   
     length 0.659812   
     axis -1.63439e-015 90 90   XYZ
    dof rx rz
    limits (-90.0 90.0)
           (-45.0 45.0)
  end
  begin
     id 22 
     name lfingers
     direction 1 -4.49052e-011 5.1228e-027   
     length 0.531957   
     axis -3.26879e-015 90 90   XYZ
    dof rx
    limits (0.0 90.0)
  end
  begin
     id 23
     name lthumb
     direction 0.707107 -6.35012e-011 0.707107   
     length 0.763787   
     axis -90 45 2.85299e-015   XYZ
    dof rx rz
    limits (-45.0 45.0)
           (-45.0 45.0)
  end
  begin
     id 24 
     name rclavicle
     direction -0.895351 0.435135 0.0948887   
     length 3.70497  
     axis 0 0 0   XYZ 
    dof ry rz
    limits (-10.0 20.0)
           (-20.0 0.0)
  end
  begin
     id 25 
     name rhumerus
     direction -1 -4.48971e-011 2.38946e-027  
     length 4.48913   
     axis -180 30 90   XYZ
    dof rx ry rz
    limits (-90.0 60.0)
           (-90.0 90.0)
           (-90.0 90.0)
  end
  begin
     id 26 
     name rradius
     direction -1 -4.4895e-011 4.38668e-027   
     length 3.7051   
     axis -180 30 90   XYZ
    dof rx
    limits (-10.0 170.0)
  end
  begin
     id 27 
     name rwrist
     direction -1 -4.49007e-011 1.2807e-027   
     length 1.85255   
     axis 1.91374e-015 -90 -90   XYZ
    dof ry
    limits (-180.0 0.0)
  end
  begin
     id 28
     name rhand
     direction -1 -4.48851e-011 2.5614e-027   
     length 0.449136   
     axis -1.63439e-015 -90 -90   XYZ
    dof rx rz
    limits (-90.0 90.0)
           (-45.0 45.0)
  end
  begin
     id 29
     name rfingers
     direction -1 -4.49128e-011 5.1228e-027   
     length 0.362105   
     axis -3.26879e-015 -90 -90   XYZ
    dof rx
    limits (0.0 90.0)
  end
  begin
     id 30
     name rthumb
     direction -0.707107 -6.34851e-011 0.707107   
     length 0.519912   
     axis -90 -45 -2.85299e-015   XYZ
    dof rx rz
    limits (-45.0 45.0)
           (-45.0 45.0)
  end
:hierarchy
  begin
    root lhipjoint rhipjoint lowerback
    lhipjoint lfemur
    lfemur ltibia
    ltibia lfoot
    lfoot ltoes
    rhipjoint rfemur
    rfemur rtibia
    rtibia rfoot
    rfoot rtoes
    lowerback upperback
    upperback thorax
    thorax lowerneck lclavicle rclavicle
    lowerneck upperneck
    upperneck head
    lclavicle lhumerus
    lhumerus lradius
    lradius lwrist
    lwrist lhand lthumb
    lhand lfingers
    rclavicle rhumerus
    rhumerus rradius
    rradius rwrist
    rwrist rhand rthumb
    rhand rfingers
  end

#!OML:ASF I:\Actors\actors\Patient Classification 2\Patient 1\Session 1\actor1.ASF
:FULLY-SPECIFIED
:DEGREES
1
root -1.08163 18.1811 5.59502 1.54127 -4.41342 -2.47683
lowerback 1.84253 1.01547 -0.152928
upperback -0.0606646 1.36421 1.20796
thorax -1.1276 0.68604 1.28445
lowerneck -9.32928 -2.11452 -4.22897
upperneck 16.4663 -3.0061 4.56054
head 6.68041 -1.33884 1.90734
rclavicle 9.486e-015 4.37715e-015
rhumerus -46.4991 3.15868 -86.3053
rradius 40.594
rwrist 9.16667
rhand -7.238 -26.8884
rfingers 7.12502
rthumb 18.6419 -56.0151
lclavicle 9.486e-015 4.37715e-015
lhumerus -41.4088 -1.995 90.2467
lradius 37.1897
lwrist 2.79326
lhand -5.57173 -28.6448
lfingers 7.12502
lthumb 20.244 0.320245
rfemur 8.5314 1.373 18.0377
rtibia -3.95753
rfoot -15.134 -10.0029
rtoes 10.9398
lfemur 14.805 -10.0004 -15.3791
ltibia -15.895
lfoot -7.66147 25.0758
ltoes -4.93475
2
root -1.0819 18.1813 5.59559 1.54879 -4.39946 -2.45111
lowerback 1.82393 1.00768 -0.189198
upperback -0.0785046 1.35305 1.20173
thorax -1.13587 0.680756 1.29886
lowerneck -9.53202 -2.17082 -4.05244
upperneck 16.7011 -3.06473 4.28598
head 6.78751 -1.37537 1.78359
rclavicle -4.42591e-015 5.12569e-015
rhumerus -46.5275 3.17738 -86.3155
rradius 40.5823
rwrist 9.16862
rhand -7.26721 -26.7895
rfingers 7.12502
rthumb 18.6138 -55.919
lclavicle -4.42591e-015 5.12569e-015
lhumerus -41.4424 -2.00167 90.2426
lradius 37.2173
lwrist 2.86665
lhand -5.56519 -28.6204
lfingers 7.12502
lthumb 20.2503 0.344012
rfemur 8.54761 1.35887 18.0076
rtibia -4.01043
rfoot -15.0834 -10.0267
rtoes 10.8562
lfemur 14.7801 -10.0438 -15.4085
ltibia -15.8671
lfoot -7.68273 25.0975
ltoes -4.88428
3
root -1.08187 18.1814 5.59618 1.54251 -4.40149 -2.44105
lowerback 1.81397 1.00902 -0.192164
upperback -0.0834129 1.35467 1.19198
thorax -1.13518 0.68157 1.29062
lowerneck -10.2757 -2.41421 -3.80992
upperneck 17.5163 -3.34842 3.77418
head 7.18258 -1.52813 1.54704
rclavicle -4.22015e-015 -3.57191e-017
rhumerus -46.5527 3.19264 -86.3369
rradius 40.589
rwrist 9.17672
rhand -7.28675 -26.7304
rfingers 7.12502
rthumb 18.595 -55.8617
lclavicle -4.22015e-015 -3.57191e-017
lhumerus -41.4315 -1.97354 90.2082
lradius 37.1875
lwrist 2.85136
lhand -5.51465 -28.7037
lfingers 7.12502
lthumb 20.2989 0.255534
rfemur 8.55947 1.36164 17.9929
rtibia -4.0014
rfoot -15.0824 -10.022
rtoes 10.7463
lfemur 14.7759 -10.0385 -15.4212
ltibia -15.846
lfoot -7.68934 25.0962
ltoes -5.01574
4
root -1.08174 18.1811 5.59695 1.52354 -4.40327 -2.44674
lowerback 1.80801 1.01346 -0.176985
upperback -0.0795927 1.3608 1.18704
thorax -1.1276 0.68449 1.27704
lowerneck -11.2426 -2.76571 -3.55096
upperneck 18.5326 -3.75302 3.1211
head 7.68703 -1.74918 1.24099
rclavicle 3.76914e-015 1.48032e-014
rhumerus -46.5633 3.18061 -86.3413
rradius 40.5899
rwrist 9.19001
rhand -7.23294 -26.7372
rfingers 7.12502
rthumb 18.6468 -55.8635
lclavicle 3.76914e-015 1.48032e-014
lhumerus -41.4166 -1.94421 90.1727
lradius 37.1568
lwrist 2.76356
lhand -5.46425 -28.7846
lfingers 7.12502
lthumb 20.3473 0.169457
rfemur 8.59081 1.36469 17.9966
rtibia -4.00319
rfoot -15.1158 -10.0133
rtoes 10.8307
lfemur 14.7901 -10.0159 -15.4166
ltibia -15.829
lfoot -7.73779 25.0744
ltoes -4.85063
5
root -1.0818 18.1811 5.5975 1.50306 -4.3936 -2.43344
lowerback 1.79526 1.01522 -0.191971
upperback -0.0589931 1.36254 1.18441
thorax -1.09969 0.68528 1.28315
lowerneck -10.5064 -2.50123 -3.72182
upperneck 17.739 -3.44802 3.58829
head 7.29543 -1.58305 1.46041
rclavicle -1.98444e-014 -5.18704e-016
rhumerus -46.5369 3.15598 -86.3305
rradius 40.5947
rwrist 9.17967
rhand -7.15808 -26.7374
rfingers 7.12502
rthumb 18.7188 -55.8568
lclavicle -1.98444e-014 -5.18704e-016
lhumerus -41.3856 -1.94214 90.1659
lradius 37.1527
lwrist 2.71919
lhand -5.42854 -28.7767
lfingers 7.12502
lthumb 20.3816 0.173758
rfemur 8.58205 1.35514 17.9851
rtibia -3.94419
rfoot -15.15 -9.99714
rtoes 10.8932
lfemur 14.8079 -9.97999 -15.4291
ltibia -15.8268
lfoot -7.75965 25.0342
ltoes -4.64477
